<svg id="Atoms_Icons_16_Info" data-name="Atoms / Icons / 16 / Info" xmlns="http://www.w3.org/2000/svg" width="16" height="16" viewBox="0 0 16 16"><script xmlns="" id="custom-useragent-string-page-script"/>
  <g id="Group_4" data-name="Group 4">
    <circle id="Oval" cx="8" cy="8" r="8" fill="#00c8e1"/>
    <path id="i" d="M.294,10.03V3.9H1.706V10.03Zm0-8.324A.961.961,0,0,1,0,1,.962.962,0,0,1,.294.294.962.962,0,0,1,1,0a.961.961,0,0,1,.706.294A.962.962,0,0,1,2,1a.951.951,0,0,1-.294.716A.976.976,0,0,1,1,2,.962.962,0,0,1,.294,1.706Z" transform="translate(7 3)" fill="#fff" stroke="#fff" stroke-miterlimit="10" stroke-width="0.5"/>
  </g>
</svg>