<?xml version="1.0" encoding="UTF-8"?>
<!-- Generator: Adobe Illustrator 22.1.0, SVG Export Plug-In . SVG Version: 6.00 Build 0)  -->
<svg version="1.1" id="Laag_1" xmlns="http://www.w3.org/2000/svg" xmlns:xlink="http://www.w3.org/1999/xlink" x="0px" y="0px" viewBox="0 0 99.3 85.8" style="enable-background:new 0 0 99.3 85.8;" xml:space="preserve">
<style type="text/css">
	.st0{fill:#020203;}
	.st1{fill:#EB621D;}
	.st2{fill:#E41522;}
	.st3{fill:#F59E1F;}
</style>
<g>
	<path class="st0" d="M21.6,78.3v-4.7c0-1.8-1.1-3-3-3c-0.9,0-2,0.3-2.7,1.3c-0.6-0.9-1.3-1.3-2.5-1.3c-0.8,0-1.6,0.2-2.2,1.1v-0.9   H9.5v7.6h1.7v-4.2c0-1.3,0.7-2,1.8-2s1.7,0.7,1.7,2v4.2h1.7v-4.2c0-1.3,0.8-2,1.8-2c1.1,0,1.7,0.7,1.7,2v4.2H21.6L21.6,78.3z    M46.2,70.7h-2.7v-2.3h-1.7v2.3h-1.5v1.5h1.5v3.5c0,1.7,0.7,2.8,2.6,2.8c0.7,0,1.5-0.2,2.1-0.6L46,76.5c-0.5,0.3-1,0.4-1.4,0.4   c-0.8,0-1.1-0.5-1.1-1.3v-3.4h2.7V70.7L46.2,70.7z M60.3,70.6c-0.9,0-1.6,0.5-2,1.1v-0.9h-1.7v7.6h1.7v-4.3c0-1.3,0.6-2,1.6-2   c0.3,0,0.7,0.1,1,0.2l0.5-1.6C61.1,70.6,60.6,70.6,60.3,70.6L60.3,70.6L60.3,70.6z M39,71.4c-0.8-0.6-1.9-0.8-3.1-0.8   c-1.9,0-3.2,0.9-3.2,2.5c0,1.3,0.9,2,2.6,2.2l0.8,0.1c0.9,0.2,1.3,0.4,1.3,0.8c0,0.6-0.6,0.9-1.7,0.9s-2-0.4-2.5-0.8l-0.8,1.3   c0.9,0.6,2.1,0.9,3.2,0.9c2.2,0,3.5-1,3.5-2.5c0-1.3-1-2.1-2.6-2.3l-0.8-0.1c-0.7-0.1-1.3-0.2-1.3-0.7c0-0.6,0.6-0.9,1.4-0.9   c0.9,0,1.9,0.4,2.4,0.6L39,71.4L39,71.4z M83.1,70.6c-0.9,0-1.6,0.5-2,1.1v-0.9h-1.7v7.6h1.7v-4.3c0-1.3,0.6-2,1.6-2   c0.3,0,0.7,0.1,1,0.2l0.5-1.6C83.9,70.6,83.5,70.6,83.1,70.6L83.1,70.6L83.1,70.6z M61.9,74.5c0,2.3,1.6,4,4,4   c1.1,0,1.9-0.2,2.7-0.9l-0.8-1.3c-0.6,0.5-1.3,0.7-2,0.7c-1.3,0-2.3-0.9-2.3-2.5c0-1.4,0.9-2.4,2.3-2.5c0.7,0,1.3,0.2,2,0.7   l0.8-1.3c-0.8-0.6-1.6-0.9-2.7-0.9C63.5,70.6,61.9,72.2,61.9,74.5L61.9,74.5L61.9,74.5z M77.3,74.5v-3.8h-1.7v0.9   c-0.6-0.7-1.3-1.1-2.4-1.1c-2.1,0-3.8,1.7-3.8,4c0,2.3,1.7,4,3.8,4c1.1,0,1.9-0.4,2.4-1.1v0.9h1.7V74.5z M71.2,74.5   c0-1.3,0.9-2.5,2.3-2.5c1.3,0,2.3,1,2.3,2.5c0,1.3-0.9,2.5-2.3,2.5C72.1,76.9,71.2,75.9,71.2,74.5L71.2,74.5z M51.3,70.6   c-2.2,0-3.8,1.6-3.8,4c0,2.4,1.6,4,3.9,4c1.1,0,2.2-0.3,3.1-1l-0.8-1.2c-0.6,0.5-1.4,0.8-2.2,0.8c-1,0-2.1-0.5-2.3-1.8h5.6v-0.6   C54.9,72.2,53.5,70.6,51.3,70.6L51.3,70.6L51.3,70.6z M51.3,72c1,0,1.7,0.6,1.9,1.8h-4C49.4,72.8,50.1,72,51.3,72L51.3,72z    M92.6,74.5v-6.8h-1.7v4c-0.6-0.7-1.3-1.1-2.4-1.1c-2.1,0-3.8,1.7-3.8,4c0,2.3,1.7,4,3.8,4c1.1,0,1.9-0.4,2.4-1.1v0.9h1.7V74.5z    M86.5,74.5c0-1.3,0.9-2.5,2.3-2.5c1.3,0,2.3,1,2.3,2.5c0,1.3-0.9,2.5-2.3,2.5C87.3,76.9,86.5,75.9,86.5,74.5L86.5,74.5z    M30.9,74.5v-3.8h-1.7v0.9c-0.6-0.7-1.3-1.1-2.4-1.1c-2.1,0-3.8,1.7-3.8,4c0,2.3,1.7,4,3.8,4c1.1,0,1.9-0.4,2.4-1.1v0.9h1.7V74.5z    M24.7,74.5c0-1.3,0.9-2.5,2.3-2.5c1.3,0,2.3,1,2.3,2.5c0,1.3-0.9,2.5-2.3,2.5C25.6,76.9,24.7,75.9,24.7,74.5z"/>
	<rect x="38.4" y="13" class="st1" width="24.9" height="44.8"/>
	<path class="st2" d="M40,35.4c0-9.1,4.3-17.2,10.8-22.4C46,9.2,39.9,7,33.3,7C17.5,7,4.8,19.7,4.8,35.4s12.7,28.5,28.5,28.5   c6.6,0,12.7-2.3,17.6-6.1C44.3,52.7,40,44.5,40,35.4z"/>
	<path class="st3" d="M97,35.4c0,15.8-12.7,28.5-28.5,28.5c-6.6,0-12.7-2.3-17.6-6.1c6.6-5.2,10.8-13.3,10.8-22.4S57.5,18.3,50.9,13   C55.8,9.2,61.9,7,68.5,7C84.2,7,97,19.8,97,35.4z"/>
</g>
</svg>