<?xml version="1.0" encoding="UTF-8"?>
<!-- Generator: Adobe Illustrator 22.1.0, SVG Export Plug-In . SVG Version: 6.00 Build 0)  -->
<svg version="1.1" id="Laag_1" xmlns="http://www.w3.org/2000/svg" xmlns:xlink="http://www.w3.org/1999/xlink" x="0px" y="0px" viewBox="0 0 99.3 33.2" style="enable-background:new 0 0 99.3 33.2;" xml:space="preserve">
<style type="text/css">
	.st0{fill:url(#SVGID_1_);}
</style>
<linearGradient id="SVGID_1_" gradientUnits="userSpaceOnUse" x1="1.8" y1="21.4719" x2="97" y2="21.4719" gradientTransform="matrix(1 0 0 -1 0 38.0457)">
	<stop offset="0" style="stop-color:#272158"/>
	<stop offset="1" style="stop-color:#164194"/>
</linearGradient>
<path class="st0" d="M37.9,1.8L25.4,31.5h-8.1L11.2,7.8c-0.4-1.5-0.7-2-1.8-2.6c-1.9-1-4.9-1.9-7.6-2.5L2,1.8h13  c1.7,0,3.2,1.1,3.5,3L21.8,22l8-20.3L37.9,1.8L37.9,1.8z M69.8,21.8C69.8,14,58.9,13.5,59,10c0-1.1,1-2.2,3.3-2.5  c1.1-0.1,4.1-0.3,7.6,1.3l1.4-6.3c-1.9-0.7-4.2-1.3-7.2-1.3c-7.6,0-13,4-13,9.8c-0.1,4.3,3.8,6.7,6.7,8.1c3,1.5,4,2.4,4,3.7  c0,2-2.4,2.9-4.6,2.9c-3.9,0.1-6.1-1-7.9-1.9l-1.4,6.5c1.8,0.8,5.1,1.5,8.6,1.6C64.5,32,69.8,28,69.8,21.8 M89.9,31.5H97L90.8,1.7  h-6.6c-1.5,0-2.7,0.9-3.3,2.2L69.4,31.5h8.1l1.6-4.4H89L89.9,31.5z M81.3,21l4.1-11.2L87.7,21H81.3z M48.9,1.8l-6.4,29.8h-7.7  l6.4-29.8H48.9z"/>
</svg>